# xmcd
#
# Track frame offsets:
#	150
#	10582
#	22468
#	34845
#	46646
#	56986
#	69405
#	79752
#	89212
#	99090
#	109035
#	120329
#	130536
#	141453
#	153733
#	164111
#	176200
#	185546
#	197052
#	207586
#
# Disc length: 2934 seconds
#
# Revision: 0
# Processed by: cddbd v1.5.2PL0 Copyright (c) Steve Scherf et al.
# Submitted via: EasyCDDAExtractor 16.0.6.1
#
DISCID=230b7414
DTITLE=Artisti Vari - Country and Western Ladies [CD03)
DYEAR=2014
DGENRE=country
TTITLE0=The Maddox Brothers and Rose - Old Black Choo-Choo
TTITLE1=Kitty Wells and Red Foley - You And Me
TTITLE2=Skeeter Davis - (I Can't Help You) I'm Falling Too
TTITLE3=Patsy Cline - Never No More
TTITLE4=Jean Shepard - Two Whoops And A Holler
TTITLE5=Patsy Montana - Smile And Drive Your Blues Away
TTITLE6=Loretta Lynn - I'm A Honky Tonky Girl
TTITLE7=Goldie Hill - I Am Still Your Baby
TTITLE8=Anita Carter and Hank Snow - Down The Trail Of Aching Heart
TTITLE9=Kitty Wells - I Can't Stop Loving You
TTITLE10=The Maddox Brothers and Rose - Tall Man
TTITLE11=Goldie Hill - I'm Yvonne From The Bayou
TTITLE12=Margie Singleton - Eyes Of Love
TTITLE13=Patsy Montana - Gallopin'to Gallup
TTITLE14=Jean Shepard - The Other Woman
TTITLE15=Kitty Wells and Webb Pierce - Oh, So Many Years
TTITLE16=Patsy Cline - Love, Love, Love Me, Honey Do
TTITLE17=Skeeter Davis - My Last Date With You
TTITLE18=The Maddox Brothers and Rose - I'll Go Steppin' Too
TTITLE19=Kitty Wells - The Lonely Side Of Town
EXTD=
EXTT0=
EXTT1=
EXTT2=
EXTT3=
EXTT4=
EXTT5=
EXTT6=
EXTT7=
EXTT8=
EXTT9=
EXTT10=
EXTT11=
EXTT12=
EXTT13=
EXTT14=
EXTT15=
EXTT16=
EXTT17=
EXTT18=
EXTT19=
PLAYORDER=
